<svg id="visual" viewBox="0 0 900 600" width="900" height="600" xmlns="http://www.w3.org/2000/svg" xmlns:xlink="http://www.w3.org/1999/xlink" version="1.1"><rect x="0" y="0" width="900" height="600" fill="#002233"></rect><path d="M0 390L21.5 393C43 396 86 402 128.8 415.8C171.7 429.7 214.3 451.3 257.2 455.7C300 460 343 447 385.8 446C428.7 445 471.3 456 514.2 449.5C557 443 600 419 642.8 408.8C685.7 398.7 728.3 402.3 771.2 417C814 431.7 857 457.3 878.5 470.2L900 483L900 601L878.5 601C857 601 814 601 771.2 601C728.3 601 685.7 601 642.8 601C600 601 557 601 514.2 601C471.3 601 428.7 601 385.8 601C343 601 300 601 257.2 601C214.3 601 171.7 601 128.8 601C86 601 43 601 21.5 601L0 601Z" fill="#0066FF" stroke-linecap="round" stroke-linejoin="miter"></path></svg>